<mxfile host="app.diagrams.net" modified="2023-08-16T16:32:13.047Z" agent="Mozilla/5.0 (Windows NT 10.0; Win64; x64) AppleWebKit/537.36 (KHTML, like Gecko) Chrome/115.0.0.0 Safari/537.36" etag="oZs-HeGRl3B7to-NnUQJ" version="21.6.8" type="device" pages="3">
  <diagram name="exerc 8" id="U9uFGsw3nrmO2XLLe_0h">
    <mxGraphModel dx="1332" dy="480" grid="1" gridSize="10" guides="1" tooltips="1" connect="1" arrows="1" fold="1" page="1" pageScale="1" pageWidth="827" pageHeight="1169" math="0" shadow="0">
      <root>
        <mxCell id="0" />
        <mxCell id="1" parent="0" />
        <mxCell id="5GacxcIrV0QUZWpH4aSg-4" value="" style="edgeStyle=orthogonalEdgeStyle;rounded=0;orthogonalLoop=1;jettySize=auto;html=1;" parent="1" source="5GacxcIrV0QUZWpH4aSg-2" target="5GacxcIrV0QUZWpH4aSg-3" edge="1">
          <mxGeometry relative="1" as="geometry" />
        </mxCell>
        <mxCell id="5GacxcIrV0QUZWpH4aSg-2" value="" style="ellipse;whiteSpace=wrap;html=1;fillColor=#008a00;fontColor=#ffffff;strokeColor=#005700;" parent="1" vertex="1">
          <mxGeometry x="374" y="40" width="80" height="80" as="geometry" />
        </mxCell>
        <mxCell id="5GacxcIrV0QUZWpH4aSg-13" value="" style="edgeStyle=orthogonalEdgeStyle;rounded=0;orthogonalLoop=1;jettySize=auto;html=1;" parent="1" source="5GacxcIrV0QUZWpH4aSg-3" target="5GacxcIrV0QUZWpH4aSg-12" edge="1">
          <mxGeometry relative="1" as="geometry" />
        </mxCell>
        <mxCell id="5GacxcIrV0QUZWpH4aSg-3" value="Receber golpe" style="whiteSpace=wrap;html=1;" parent="1" vertex="1">
          <mxGeometry x="354" y="220" width="120" height="60" as="geometry" />
        </mxCell>
        <mxCell id="5GacxcIrV0QUZWpH4aSg-16" value="" style="edgeStyle=orthogonalEdgeStyle;rounded=0;orthogonalLoop=1;jettySize=auto;html=1;entryX=1;entryY=0.5;entryDx=0;entryDy=0;" parent="1" source="5GacxcIrV0QUZWpH4aSg-12" target="5GacxcIrV0QUZWpH4aSg-18" edge="1">
          <mxGeometry relative="1" as="geometry">
            <mxPoint x="200" y="390" as="targetPoint" />
          </mxGeometry>
        </mxCell>
        <mxCell id="5GacxcIrV0QUZWpH4aSg-17" value="[Golpe tirou parte do corpo]" style="edgeLabel;html=1;align=center;verticalAlign=middle;resizable=0;points=[];" parent="5GacxcIrV0QUZWpH4aSg-16" vertex="1" connectable="0">
          <mxGeometry x="0.0806" y="-1" relative="1" as="geometry">
            <mxPoint x="5" y="1" as="offset" />
          </mxGeometry>
        </mxCell>
        <mxCell id="5GacxcIrV0QUZWpH4aSg-24" style="edgeStyle=orthogonalEdgeStyle;rounded=0;orthogonalLoop=1;jettySize=auto;html=1;exitX=1;exitY=0.5;exitDx=0;exitDy=0;entryX=1;entryY=0.5;entryDx=0;entryDy=0;" parent="1" source="5GacxcIrV0QUZWpH4aSg-12" target="5GacxcIrV0QUZWpH4aSg-3" edge="1">
          <mxGeometry relative="1" as="geometry">
            <Array as="points">
              <mxPoint x="640" y="390" />
              <mxPoint x="640" y="250" />
            </Array>
          </mxGeometry>
        </mxCell>
        <mxCell id="5GacxcIrV0QUZWpH4aSg-25" value="[Golpe não tirou parte do corpo]" style="edgeLabel;html=1;align=center;verticalAlign=middle;resizable=0;points=[];" parent="5GacxcIrV0QUZWpH4aSg-24" vertex="1" connectable="0">
          <mxGeometry x="-0.6774" relative="1" as="geometry">
            <mxPoint x="7" as="offset" />
          </mxGeometry>
        </mxCell>
        <mxCell id="5GacxcIrV0QUZWpH4aSg-12" value="" style="rhombus;whiteSpace=wrap;html=1;" parent="1" vertex="1">
          <mxGeometry x="374" y="350" width="80" height="80" as="geometry" />
        </mxCell>
        <mxCell id="5GacxcIrV0QUZWpH4aSg-22" value="" style="edgeStyle=orthogonalEdgeStyle;rounded=0;orthogonalLoop=1;jettySize=auto;html=1;" parent="1" source="5GacxcIrV0QUZWpH4aSg-18" target="5GacxcIrV0QUZWpH4aSg-21" edge="1">
          <mxGeometry relative="1" as="geometry" />
        </mxCell>
        <mxCell id="5GacxcIrV0QUZWpH4aSg-23" value="[ki &amp;gt; 5]" style="edgeLabel;html=1;align=center;verticalAlign=middle;resizable=0;points=[];" parent="5GacxcIrV0QUZWpH4aSg-22" vertex="1" connectable="0">
          <mxGeometry x="-0.1333" y="-1" relative="1" as="geometry">
            <mxPoint x="-1" as="offset" />
          </mxGeometry>
        </mxCell>
        <mxCell id="5GacxcIrV0QUZWpH4aSg-27" value="" style="edgeStyle=orthogonalEdgeStyle;rounded=0;orthogonalLoop=1;jettySize=auto;html=1;" parent="1" source="5GacxcIrV0QUZWpH4aSg-18" target="5GacxcIrV0QUZWpH4aSg-26" edge="1">
          <mxGeometry relative="1" as="geometry" />
        </mxCell>
        <mxCell id="5GacxcIrV0QUZWpH4aSg-28" value="[ki &amp;lt;= 5]" style="edgeLabel;html=1;align=center;verticalAlign=middle;resizable=0;points=[];" parent="5GacxcIrV0QUZWpH4aSg-27" vertex="1" connectable="0">
          <mxGeometry x="-0.2222" y="-1" relative="1" as="geometry">
            <mxPoint x="1" y="5" as="offset" />
          </mxGeometry>
        </mxCell>
        <mxCell id="5GacxcIrV0QUZWpH4aSg-18" value="" style="rhombus;whiteSpace=wrap;html=1;" parent="1" vertex="1">
          <mxGeometry x="110" y="350" width="80" height="80" as="geometry" />
        </mxCell>
        <mxCell id="5GacxcIrV0QUZWpH4aSg-29" style="edgeStyle=orthogonalEdgeStyle;rounded=0;orthogonalLoop=1;jettySize=auto;html=1;exitX=1;exitY=0.5;exitDx=0;exitDy=0;entryX=0;entryY=0.5;entryDx=0;entryDy=0;" parent="1" source="5GacxcIrV0QUZWpH4aSg-21" target="5GacxcIrV0QUZWpH4aSg-3" edge="1">
          <mxGeometry relative="1" as="geometry" />
        </mxCell>
        <mxCell id="5GacxcIrV0QUZWpH4aSg-21" value="Regenerar &amp;amp; Perder&amp;nbsp;&lt;i&gt;&lt;b&gt;ki (10%)&lt;/b&gt;&lt;/i&gt;" style="whiteSpace=wrap;html=1;" parent="1" vertex="1">
          <mxGeometry x="90" y="220" width="120" height="60" as="geometry" />
        </mxCell>
        <mxCell id="5GacxcIrV0QUZWpH4aSg-31" value="" style="edgeStyle=orthogonalEdgeStyle;rounded=0;orthogonalLoop=1;jettySize=auto;html=1;" parent="1" source="5GacxcIrV0QUZWpH4aSg-26" target="5GacxcIrV0QUZWpH4aSg-30" edge="1">
          <mxGeometry relative="1" as="geometry" />
        </mxCell>
        <mxCell id="5GacxcIrV0QUZWpH4aSg-26" value="Morrer" style="whiteSpace=wrap;html=1;" parent="1" vertex="1">
          <mxGeometry x="90" y="520" width="120" height="60" as="geometry" />
        </mxCell>
        <mxCell id="5GacxcIrV0QUZWpH4aSg-30" value="" style="ellipse;whiteSpace=wrap;html=1;fillColor=#fa6800;fontColor=#000000;strokeColor=#C73500;" parent="1" vertex="1">
          <mxGeometry x="374" y="510" width="80" height="80" as="geometry" />
        </mxCell>
      </root>
    </mxGraphModel>
  </diagram>
  <diagram id="gc-FtxE8wfaKCQJIK6CW" name="exerc 7">
    <mxGraphModel dx="1332" dy="480" grid="1" gridSize="10" guides="1" tooltips="1" connect="1" arrows="1" fold="1" page="1" pageScale="1" pageWidth="827" pageHeight="1169" math="0" shadow="0">
      <root>
        <mxCell id="0" />
        <mxCell id="1" parent="0" />
        <mxCell id="dGKnOj-TrOt1qwUYdOFK-3" value="" style="edgeStyle=orthogonalEdgeStyle;rounded=0;orthogonalLoop=1;jettySize=auto;html=1;" parent="1" source="dGKnOj-TrOt1qwUYdOFK-1" target="dGKnOj-TrOt1qwUYdOFK-2" edge="1">
          <mxGeometry relative="1" as="geometry" />
        </mxCell>
        <mxCell id="dGKnOj-TrOt1qwUYdOFK-1" value="" style="ellipse;whiteSpace=wrap;html=1;fillColor=#008a00;fontColor=#ffffff;strokeColor=#005700;" parent="1" vertex="1">
          <mxGeometry x="374" y="20" width="80" height="80" as="geometry" />
        </mxCell>
        <mxCell id="dGKnOj-TrOt1qwUYdOFK-5" value="" style="edgeStyle=orthogonalEdgeStyle;rounded=0;orthogonalLoop=1;jettySize=auto;html=1;" parent="1" source="dGKnOj-TrOt1qwUYdOFK-2" target="dGKnOj-TrOt1qwUYdOFK-4" edge="1">
          <mxGeometry relative="1" as="geometry" />
        </mxCell>
        <mxCell id="dGKnOj-TrOt1qwUYdOFK-2" value="Ler salário&lt;br&gt;&lt;br&gt;&lt;b&gt;[salario]&lt;/b&gt;" style="whiteSpace=wrap;html=1;" parent="1" vertex="1">
          <mxGeometry x="354" y="190" width="120" height="60" as="geometry" />
        </mxCell>
        <mxCell id="dGKnOj-TrOt1qwUYdOFK-7" value="" style="edgeStyle=orthogonalEdgeStyle;rounded=0;orthogonalLoop=1;jettySize=auto;html=1;" parent="1" source="dGKnOj-TrOt1qwUYdOFK-4" target="dGKnOj-TrOt1qwUYdOFK-6" edge="1">
          <mxGeometry relative="1" as="geometry" />
        </mxCell>
        <mxCell id="dGKnOj-TrOt1qwUYdOFK-4" value="Ler valor da faculdade&lt;br&gt;&lt;br&gt;&lt;b&gt;[boleto]&lt;/b&gt;" style="whiteSpace=wrap;html=1;" parent="1" vertex="1">
          <mxGeometry x="346" y="330" width="136" height="60" as="geometry" />
        </mxCell>
        <mxCell id="dGKnOj-TrOt1qwUYdOFK-9" value="" style="edgeStyle=orthogonalEdgeStyle;rounded=0;orthogonalLoop=1;jettySize=auto;html=1;" parent="1" source="dGKnOj-TrOt1qwUYdOFK-6" target="dGKnOj-TrOt1qwUYdOFK-8" edge="1">
          <mxGeometry relative="1" as="geometry" />
        </mxCell>
        <mxCell id="dGKnOj-TrOt1qwUYdOFK-6" value="Calcular média diária&lt;br&gt;&lt;br&gt;(salario - faculdade)/30&lt;br&gt;&lt;br&gt;&lt;b&gt;[media]&lt;/b&gt;" style="whiteSpace=wrap;html=1;" parent="1" vertex="1">
          <mxGeometry x="342" y="450" width="144" height="80" as="geometry" />
        </mxCell>
        <mxCell id="dGKnOj-TrOt1qwUYdOFK-11" value="" style="edgeStyle=orthogonalEdgeStyle;rounded=0;orthogonalLoop=1;jettySize=auto;html=1;" parent="1" source="dGKnOj-TrOt1qwUYdOFK-8" target="dGKnOj-TrOt1qwUYdOFK-10" edge="1">
          <mxGeometry relative="1" as="geometry" />
        </mxCell>
        <mxCell id="dGKnOj-TrOt1qwUYdOFK-23" value="[Caso &lt;b&gt;media &amp;lt; 15]&lt;/b&gt;" style="edgeLabel;html=1;align=center;verticalAlign=middle;resizable=0;points=[];" parent="dGKnOj-TrOt1qwUYdOFK-11" vertex="1" connectable="0">
          <mxGeometry x="-0.0645" y="-2" relative="1" as="geometry">
            <mxPoint y="-2" as="offset" />
          </mxGeometry>
        </mxCell>
        <mxCell id="dGKnOj-TrOt1qwUYdOFK-15" value="" style="edgeStyle=orthogonalEdgeStyle;rounded=0;orthogonalLoop=1;jettySize=auto;html=1;" parent="1" source="dGKnOj-TrOt1qwUYdOFK-8" target="dGKnOj-TrOt1qwUYdOFK-14" edge="1">
          <mxGeometry relative="1" as="geometry" />
        </mxCell>
        <mxCell id="dGKnOj-TrOt1qwUYdOFK-26" value="[Caso &lt;b&gt;media &amp;gt;=15&amp;nbsp; &amp;amp;&amp;amp; media &amp;lt;=20&lt;/b&gt;]" style="edgeLabel;html=1;align=center;verticalAlign=middle;resizable=0;points=[];" parent="dGKnOj-TrOt1qwUYdOFK-15" vertex="1" connectable="0">
          <mxGeometry x="-0.0122" relative="1" as="geometry">
            <mxPoint as="offset" />
          </mxGeometry>
        </mxCell>
        <mxCell id="dGKnOj-TrOt1qwUYdOFK-18" style="edgeStyle=orthogonalEdgeStyle;rounded=0;orthogonalLoop=1;jettySize=auto;html=1;exitX=0;exitY=1;exitDx=0;exitDy=0;entryX=1;entryY=0.5;entryDx=0;entryDy=0;" parent="1" source="dGKnOj-TrOt1qwUYdOFK-8" target="dGKnOj-TrOt1qwUYdOFK-12" edge="1">
          <mxGeometry relative="1" as="geometry">
            <Array as="points">
              <mxPoint x="394" y="790" />
            </Array>
          </mxGeometry>
        </mxCell>
        <mxCell id="dGKnOj-TrOt1qwUYdOFK-27" value="[Caso &lt;b&gt;media &amp;gt;20 &amp;amp;&amp;amp; media &amp;lt;25&lt;/b&gt;]" style="edgeLabel;html=1;align=center;verticalAlign=middle;resizable=0;points=[];" parent="dGKnOj-TrOt1qwUYdOFK-18" vertex="1" connectable="0">
          <mxGeometry x="0.415" y="-2" relative="1" as="geometry">
            <mxPoint as="offset" />
          </mxGeometry>
        </mxCell>
        <mxCell id="dGKnOj-TrOt1qwUYdOFK-19" style="edgeStyle=orthogonalEdgeStyle;rounded=0;orthogonalLoop=1;jettySize=auto;html=1;exitX=1;exitY=1;exitDx=0;exitDy=0;entryX=0;entryY=0.5;entryDx=0;entryDy=0;" parent="1" source="dGKnOj-TrOt1qwUYdOFK-8" target="dGKnOj-TrOt1qwUYdOFK-16" edge="1">
          <mxGeometry relative="1" as="geometry">
            <Array as="points">
              <mxPoint x="434" y="790" />
            </Array>
          </mxGeometry>
        </mxCell>
        <mxCell id="dGKnOj-TrOt1qwUYdOFK-28" value="[Caso &lt;b&gt;media &amp;gt;=25 &amp;amp;&amp;amp; media &amp;lt;=30&lt;/b&gt;]" style="edgeLabel;html=1;align=center;verticalAlign=middle;resizable=0;points=[];" parent="dGKnOj-TrOt1qwUYdOFK-19" vertex="1" connectable="0">
          <mxGeometry x="0.2717" y="2" relative="1" as="geometry">
            <mxPoint x="16" as="offset" />
          </mxGeometry>
        </mxCell>
        <mxCell id="dGKnOj-TrOt1qwUYdOFK-30" style="edgeStyle=orthogonalEdgeStyle;rounded=0;orthogonalLoop=1;jettySize=auto;html=1;exitX=0.5;exitY=1;exitDx=0;exitDy=0;entryX=0.5;entryY=0;entryDx=0;entryDy=0;" parent="1" source="dGKnOj-TrOt1qwUYdOFK-8" target="dGKnOj-TrOt1qwUYdOFK-29" edge="1">
          <mxGeometry relative="1" as="geometry" />
        </mxCell>
        <mxCell id="7to-F0lRh35ZkX9KQ-D5-1" value="[Caso media &amp;gt; 30]" style="edgeLabel;html=1;align=center;verticalAlign=middle;resizable=0;points=[];" parent="dGKnOj-TrOt1qwUYdOFK-30" vertex="1" connectable="0">
          <mxGeometry x="0.6091" y="3" relative="1" as="geometry">
            <mxPoint as="offset" />
          </mxGeometry>
        </mxCell>
        <mxCell id="dGKnOj-TrOt1qwUYdOFK-8" value="" style="rhombus;whiteSpace=wrap;html=1;" parent="1" vertex="1">
          <mxGeometry x="374" y="600" width="80" height="80" as="geometry" />
        </mxCell>
        <mxCell id="dGKnOj-TrOt1qwUYdOFK-32" style="edgeStyle=orthogonalEdgeStyle;rounded=0;orthogonalLoop=1;jettySize=auto;html=1;exitX=1;exitY=0.5;exitDx=0;exitDy=0;entryX=1;entryY=0.5;entryDx=0;entryDy=0;" parent="1" source="dGKnOj-TrOt1qwUYdOFK-10" target="dGKnOj-TrOt1qwUYdOFK-31" edge="1">
          <mxGeometry relative="1" as="geometry" />
        </mxCell>
        <mxCell id="dGKnOj-TrOt1qwUYdOFK-10" value="Exibir&amp;nbsp;“#controletotal”&lt;span style=&quot;box-sizing: border-box; font-family: &amp;quot;Exo 2&amp;quot;, Barlow; color: rgb(3, 27, 78); font-size: 14px; text-align: left; background-color: rgb(255, 255, 255);&quot; data-ccp-props=&quot;{&amp;quot;201341983&amp;quot;:0,&amp;quot;335559739&amp;quot;:120,&amp;quot;335559740&amp;quot;:276}&quot;&gt;&amp;nbsp;&lt;/span&gt;" style="whiteSpace=wrap;html=1;" parent="1" vertex="1">
          <mxGeometry x="640" y="610" width="130" height="60" as="geometry" />
        </mxCell>
        <mxCell id="dGKnOj-TrOt1qwUYdOFK-36" style="edgeStyle=orthogonalEdgeStyle;rounded=0;orthogonalLoop=1;jettySize=auto;html=1;exitX=0.5;exitY=1;exitDx=0;exitDy=0;entryX=0;entryY=0.35;entryDx=0;entryDy=0;entryPerimeter=0;" parent="1" source="dGKnOj-TrOt1qwUYdOFK-12" target="dGKnOj-TrOt1qwUYdOFK-31" edge="1">
          <mxGeometry relative="1" as="geometry" />
        </mxCell>
        <mxCell id="dGKnOj-TrOt1qwUYdOFK-12" value="Exibir&lt;br&gt;“#cinemanamorada”&lt;span style=&quot;box-sizing: border-box; font-family: &amp;quot;Exo 2&amp;quot;, Barlow; color: rgb(3, 27, 78); font-size: 14px; text-align: left; background-color: rgb(255, 255, 255);&quot; data-ccp-props=&quot;{&amp;quot;201341983&amp;quot;:0,&amp;quot;335559739&amp;quot;:120,&amp;quot;335559740&amp;quot;:276}&quot;&gt;&amp;nbsp;&lt;/span&gt;" style="whiteSpace=wrap;html=1;" parent="1" vertex="1">
          <mxGeometry x="45" y="760" width="120" height="60" as="geometry" />
        </mxCell>
        <mxCell id="dGKnOj-TrOt1qwUYdOFK-35" style="edgeStyle=orthogonalEdgeStyle;rounded=0;orthogonalLoop=1;jettySize=auto;html=1;exitX=0;exitY=0.5;exitDx=0;exitDy=0;entryX=0;entryY=0.5;entryDx=0;entryDy=0;" parent="1" source="dGKnOj-TrOt1qwUYdOFK-14" target="dGKnOj-TrOt1qwUYdOFK-31" edge="1">
          <mxGeometry relative="1" as="geometry" />
        </mxCell>
        <mxCell id="dGKnOj-TrOt1qwUYdOFK-14" value="Exibir&lt;br&gt;“#ragazzonosabado”&lt;span style=&quot;box-sizing: border-box; font-family: &amp;quot;Exo 2&amp;quot;, Barlow; color: rgb(3, 27, 78); font-size: 14px; text-align: left; background-color: rgb(255, 255, 255);&quot; data-ccp-props=&quot;{&amp;quot;201341983&amp;quot;:0,&amp;quot;335559739&amp;quot;:120,&amp;quot;335559740&amp;quot;:276}&quot;&gt;&amp;nbsp;&lt;/span&gt;" style="whiteSpace=wrap;html=1;" parent="1" vertex="1">
          <mxGeometry x="40" y="610" width="130" height="60" as="geometry" />
        </mxCell>
        <mxCell id="dGKnOj-TrOt1qwUYdOFK-33" style="edgeStyle=orthogonalEdgeStyle;rounded=0;orthogonalLoop=1;jettySize=auto;html=1;exitX=0.5;exitY=1;exitDx=0;exitDy=0;entryX=0.988;entryY=0.338;entryDx=0;entryDy=0;entryPerimeter=0;" parent="1" source="dGKnOj-TrOt1qwUYdOFK-16" target="dGKnOj-TrOt1qwUYdOFK-31" edge="1">
          <mxGeometry relative="1" as="geometry" />
        </mxCell>
        <mxCell id="dGKnOj-TrOt1qwUYdOFK-16" value="Exibir&amp;nbsp;&lt;br&gt;“#novogame”&lt;span style=&quot;box-sizing: border-box; font-family: &amp;quot;Exo 2&amp;quot;, Barlow; color: rgb(3, 27, 78); font-size: 14px; text-align: left; background-color: rgb(255, 255, 255);&quot; data-ccp-props=&quot;{&amp;quot;201341983&amp;quot;:0,&amp;quot;335559739&amp;quot;:120,&amp;quot;335559740&amp;quot;:276}&quot;&gt;&amp;nbsp;&lt;/span&gt;" style="whiteSpace=wrap;html=1;" parent="1" vertex="1">
          <mxGeometry x="650" y="760" width="120" height="60" as="geometry" />
        </mxCell>
        <mxCell id="dGKnOj-TrOt1qwUYdOFK-34" style="edgeStyle=orthogonalEdgeStyle;rounded=0;orthogonalLoop=1;jettySize=auto;html=1;exitX=0.5;exitY=1;exitDx=0;exitDy=0;entryX=0.5;entryY=0;entryDx=0;entryDy=0;" parent="1" source="dGKnOj-TrOt1qwUYdOFK-29" target="dGKnOj-TrOt1qwUYdOFK-31" edge="1">
          <mxGeometry relative="1" as="geometry" />
        </mxCell>
        <mxCell id="dGKnOj-TrOt1qwUYdOFK-29" value="Exibir&lt;br&gt;“#tobonito”&lt;span style=&quot;box-sizing: border-box; font-family: &amp;quot;Exo 2&amp;quot;, Barlow; color: rgb(3, 27, 78); font-size: 14px; text-align: left; background-color: rgb(255, 255, 255);&quot; data-ccp-props=&quot;{&amp;quot;201341983&amp;quot;:0,&amp;quot;335559739&amp;quot;:120,&amp;quot;335559740&amp;quot;:276}&quot;&gt;&amp;nbsp;&lt;/span&gt;" style="whiteSpace=wrap;html=1;" parent="1" vertex="1">
          <mxGeometry x="354" y="900" width="120" height="60" as="geometry" />
        </mxCell>
        <mxCell id="dGKnOj-TrOt1qwUYdOFK-31" value="" style="ellipse;whiteSpace=wrap;html=1;fillColor=#fa6800;fontColor=#000000;strokeColor=#C73500;" parent="1" vertex="1">
          <mxGeometry x="374" y="990" width="80" height="80" as="geometry" />
        </mxCell>
      </root>
    </mxGraphModel>
  </diagram>
  <diagram id="s30xFYEBHVhMNdu9FqXy" name="exerc 9">
    <mxGraphModel dx="880" dy="446" grid="1" gridSize="10" guides="1" tooltips="1" connect="1" arrows="1" fold="1" page="1" pageScale="1" pageWidth="827" pageHeight="1169" math="0" shadow="0">
      <root>
        <mxCell id="0" />
        <mxCell id="1" parent="0" />
        <mxCell id="0FrimoAEe9XF9UaPfHPQ-3" value="" style="edgeStyle=orthogonalEdgeStyle;rounded=0;orthogonalLoop=1;jettySize=auto;html=1;" parent="1" source="0FrimoAEe9XF9UaPfHPQ-1" target="0FrimoAEe9XF9UaPfHPQ-2" edge="1">
          <mxGeometry relative="1" as="geometry" />
        </mxCell>
        <mxCell id="0FrimoAEe9XF9UaPfHPQ-1" value="" style="ellipse;whiteSpace=wrap;html=1;fillColor=#008a00;fontColor=#ffffff;strokeColor=#005700;" parent="1" vertex="1">
          <mxGeometry x="340" y="40" width="80" height="80" as="geometry" />
        </mxCell>
        <mxCell id="0FrimoAEe9XF9UaPfHPQ-5" value="" style="edgeStyle=orthogonalEdgeStyle;rounded=0;orthogonalLoop=1;jettySize=auto;html=1;" parent="1" source="0FrimoAEe9XF9UaPfHPQ-2" target="0FrimoAEe9XF9UaPfHPQ-4" edge="1">
          <mxGeometry relative="1" as="geometry" />
        </mxCell>
        <mxCell id="0FrimoAEe9XF9UaPfHPQ-2" value="Receber primeira nota&lt;br&gt;&lt;br&gt;&lt;b&gt;[nota1]&lt;/b&gt;" style="whiteSpace=wrap;html=1;" parent="1" vertex="1">
          <mxGeometry x="320" y="210" width="120" height="60" as="geometry" />
        </mxCell>
        <mxCell id="0FrimoAEe9XF9UaPfHPQ-10" value="" style="edgeStyle=orthogonalEdgeStyle;rounded=0;orthogonalLoop=1;jettySize=auto;html=1;" parent="1" source="0FrimoAEe9XF9UaPfHPQ-4" target="0FrimoAEe9XF9UaPfHPQ-9" edge="1">
          <mxGeometry relative="1" as="geometry" />
        </mxCell>
        <mxCell id="0FrimoAEe9XF9UaPfHPQ-4" value="Receber segunda nota&lt;br&gt;&lt;br&gt;&lt;b&gt;[nota2]&lt;/b&gt;" style="whiteSpace=wrap;html=1;" parent="1" vertex="1">
          <mxGeometry x="320" y="350" width="120" height="60" as="geometry" />
        </mxCell>
        <mxCell id="0FrimoAEe9XF9UaPfHPQ-11" style="edgeStyle=orthogonalEdgeStyle;rounded=0;orthogonalLoop=1;jettySize=auto;html=1;exitX=1;exitY=0.5;exitDx=0;exitDy=0;entryX=1;entryY=0.5;entryDx=0;entryDy=0;" parent="1" edge="1">
          <mxGeometry relative="1" as="geometry">
            <mxPoint x="421" y="520" as="sourcePoint" />
            <mxPoint x="441" y="240" as="targetPoint" />
            <Array as="points">
              <mxPoint x="641" y="520" />
              <mxPoint x="641" y="240" />
            </Array>
          </mxGeometry>
        </mxCell>
        <mxCell id="0FrimoAEe9XF9UaPfHPQ-13" value="[Caso &lt;b&gt;nota1 &amp;lt; 0 &amp;amp;&amp;amp; nota1 &amp;gt;10]&lt;/b&gt;" style="edgeLabel;html=1;align=center;verticalAlign=middle;resizable=0;points=[];" parent="0FrimoAEe9XF9UaPfHPQ-11" vertex="1" connectable="0">
          <mxGeometry x="0.8393" y="2" relative="1" as="geometry">
            <mxPoint x="44" y="-2" as="offset" />
          </mxGeometry>
        </mxCell>
        <mxCell id="0FrimoAEe9XF9UaPfHPQ-14" style="edgeStyle=orthogonalEdgeStyle;rounded=0;orthogonalLoop=1;jettySize=auto;html=1;exitX=0;exitY=0.5;exitDx=0;exitDy=0;entryX=0;entryY=0.5;entryDx=0;entryDy=0;" parent="1" source="0FrimoAEe9XF9UaPfHPQ-9" target="0FrimoAEe9XF9UaPfHPQ-4" edge="1">
          <mxGeometry relative="1" as="geometry">
            <Array as="points">
              <mxPoint x="140" y="520" />
              <mxPoint x="140" y="380" />
            </Array>
          </mxGeometry>
        </mxCell>
        <mxCell id="0FrimoAEe9XF9UaPfHPQ-16" value="[Caso&amp;nbsp;&lt;b style=&quot;border-color: var(--border-color);&quot;&gt;nota2 &amp;lt; 0 &amp;amp;&amp;amp; nota2 &amp;gt;10]&lt;/b&gt;" style="edgeLabel;html=1;align=center;verticalAlign=middle;resizable=0;points=[];" parent="0FrimoAEe9XF9UaPfHPQ-14" vertex="1" connectable="0">
          <mxGeometry x="0.6952" y="1" relative="1" as="geometry">
            <mxPoint x="-11" y="1" as="offset" />
          </mxGeometry>
        </mxCell>
        <mxCell id="0FrimoAEe9XF9UaPfHPQ-18" value="" style="edgeStyle=orthogonalEdgeStyle;rounded=0;orthogonalLoop=1;jettySize=auto;html=1;" parent="1" source="0FrimoAEe9XF9UaPfHPQ-9" target="0FrimoAEe9XF9UaPfHPQ-17" edge="1">
          <mxGeometry relative="1" as="geometry" />
        </mxCell>
        <mxCell id="qA0FWXShzppHcbSahXLX-5" value="[Caso nota1 &amp;amp;&amp;amp; nota2 válidos]" style="edgeLabel;html=1;align=center;verticalAlign=middle;resizable=0;points=[];" parent="0FrimoAEe9XF9UaPfHPQ-18" vertex="1" connectable="0">
          <mxGeometry x="-0.1333" relative="1" as="geometry">
            <mxPoint as="offset" />
          </mxGeometry>
        </mxCell>
        <mxCell id="0FrimoAEe9XF9UaPfHPQ-9" value="" style="rhombus;whiteSpace=wrap;html=1;" parent="1" vertex="1">
          <mxGeometry x="340" y="480" width="80" height="80" as="geometry" />
        </mxCell>
        <mxCell id="qA0FWXShzppHcbSahXLX-2" value="" style="edgeStyle=orthogonalEdgeStyle;rounded=0;orthogonalLoop=1;jettySize=auto;html=1;" parent="1" source="0FrimoAEe9XF9UaPfHPQ-17" target="qA0FWXShzppHcbSahXLX-1" edge="1">
          <mxGeometry relative="1" as="geometry" />
        </mxCell>
        <mxCell id="0FrimoAEe9XF9UaPfHPQ-17" value="Receber frequência&lt;br&gt;&lt;br&gt;&lt;b&gt;[freq]&lt;/b&gt;" style="whiteSpace=wrap;html=1;" parent="1" vertex="1">
          <mxGeometry x="320" y="650" width="120" height="60" as="geometry" />
        </mxCell>
        <mxCell id="qA0FWXShzppHcbSahXLX-3" style="edgeStyle=orthogonalEdgeStyle;rounded=0;orthogonalLoop=1;jettySize=auto;html=1;exitX=1;exitY=0.5;exitDx=0;exitDy=0;entryX=1;entryY=0.5;entryDx=0;entryDy=0;" parent="1" source="qA0FWXShzppHcbSahXLX-1" target="0FrimoAEe9XF9UaPfHPQ-17" edge="1">
          <mxGeometry relative="1" as="geometry">
            <Array as="points">
              <mxPoint x="620" y="820" />
              <mxPoint x="620" y="680" />
            </Array>
          </mxGeometry>
        </mxCell>
        <mxCell id="qA0FWXShzppHcbSahXLX-4" value="[Caso &lt;b&gt;freq &amp;lt; 0 &amp;amp;&amp;amp; freq &amp;gt; 100&lt;/b&gt;]" style="edgeLabel;html=1;align=center;verticalAlign=middle;resizable=0;points=[];" parent="qA0FWXShzppHcbSahXLX-3" vertex="1" connectable="0">
          <mxGeometry x="0.7958" y="-1" relative="1" as="geometry">
            <mxPoint x="37" y="1" as="offset" />
          </mxGeometry>
        </mxCell>
        <mxCell id="qA0FWXShzppHcbSahXLX-7" value="" style="edgeStyle=orthogonalEdgeStyle;rounded=0;orthogonalLoop=1;jettySize=auto;html=1;" parent="1" source="qA0FWXShzppHcbSahXLX-1" target="qA0FWXShzppHcbSahXLX-6" edge="1">
          <mxGeometry relative="1" as="geometry">
            <Array as="points">
              <mxPoint x="80" y="820" />
            </Array>
          </mxGeometry>
        </mxCell>
        <mxCell id="qA0FWXShzppHcbSahXLX-8" value="[Caso freq válida]" style="edgeLabel;html=1;align=center;verticalAlign=middle;resizable=0;points=[];" parent="qA0FWXShzppHcbSahXLX-7" vertex="1" connectable="0">
          <mxGeometry x="-0.0889" y="-1" relative="1" as="geometry">
            <mxPoint as="offset" />
          </mxGeometry>
        </mxCell>
        <mxCell id="qA0FWXShzppHcbSahXLX-1" value="" style="rhombus;whiteSpace=wrap;html=1;" parent="1" vertex="1">
          <mxGeometry x="340" y="780" width="80" height="80" as="geometry" />
        </mxCell>
        <mxCell id="qA0FWXShzppHcbSahXLX-10" value="" style="edgeStyle=orthogonalEdgeStyle;rounded=0;orthogonalLoop=1;jettySize=auto;html=1;" parent="1" source="qA0FWXShzppHcbSahXLX-6" target="qA0FWXShzppHcbSahXLX-9" edge="1">
          <mxGeometry relative="1" as="geometry" />
        </mxCell>
        <mxCell id="qA0FWXShzppHcbSahXLX-6" value="Calcular média&lt;br&gt;&lt;br&gt;(nota1 + nota2)/2&lt;br&gt;&lt;br&gt;&lt;b&gt;[media]&lt;/b&gt;" style="whiteSpace=wrap;html=1;" parent="1" vertex="1">
          <mxGeometry x="20" y="980" width="120" height="90" as="geometry" />
        </mxCell>
        <mxCell id="qA0FWXShzppHcbSahXLX-12" value="" style="edgeStyle=orthogonalEdgeStyle;rounded=0;orthogonalLoop=1;jettySize=auto;html=1;" parent="1" source="qA0FWXShzppHcbSahXLX-9" target="qA0FWXShzppHcbSahXLX-11" edge="1">
          <mxGeometry relative="1" as="geometry" />
        </mxCell>
        <mxCell id="qA0FWXShzppHcbSahXLX-13" value="[Caso media &amp;gt;= 6 &amp;amp;&amp;amp; freq &amp;gt;=70]" style="edgeLabel;html=1;align=center;verticalAlign=middle;resizable=0;points=[];" parent="qA0FWXShzppHcbSahXLX-12" vertex="1" connectable="0">
          <mxGeometry x="-0.1684" y="2" relative="1" as="geometry">
            <mxPoint x="21" y="2" as="offset" />
          </mxGeometry>
        </mxCell>
        <mxCell id="EY5WGtaOUp1zKnzpAjSC-4" style="edgeStyle=orthogonalEdgeStyle;rounded=0;orthogonalLoop=1;jettySize=auto;html=1;exitX=0.5;exitY=1;exitDx=0;exitDy=0;entryX=0;entryY=0.5;entryDx=0;entryDy=0;" parent="1" source="qA0FWXShzppHcbSahXLX-9" target="EY5WGtaOUp1zKnzpAjSC-2" edge="1">
          <mxGeometry relative="1" as="geometry" />
        </mxCell>
        <mxCell id="EY5WGtaOUp1zKnzpAjSC-6" value="[Caso media &amp;lt; 6 || freq &amp;lt;70]" style="edgeLabel;html=1;align=center;verticalAlign=middle;resizable=0;points=[];" parent="EY5WGtaOUp1zKnzpAjSC-4" vertex="1" connectable="0">
          <mxGeometry x="0.2525" y="-2" relative="1" as="geometry">
            <mxPoint as="offset" />
          </mxGeometry>
        </mxCell>
        <mxCell id="qA0FWXShzppHcbSahXLX-9" value="" style="rhombus;whiteSpace=wrap;html=1;" parent="1" vertex="1">
          <mxGeometry x="180" y="985" width="80" height="80" as="geometry" />
        </mxCell>
        <mxCell id="EY5WGtaOUp1zKnzpAjSC-11" style="edgeStyle=orthogonalEdgeStyle;rounded=0;orthogonalLoop=1;jettySize=auto;html=1;exitX=1;exitY=0.5;exitDx=0;exitDy=0;entryX=0;entryY=0.5;entryDx=0;entryDy=0;" parent="1" source="qA0FWXShzppHcbSahXLX-11" target="EY5WGtaOUp1zKnzpAjSC-10" edge="1">
          <mxGeometry relative="1" as="geometry" />
        </mxCell>
        <mxCell id="qA0FWXShzppHcbSahXLX-11" value="Exibir&lt;br&gt;&quot;Parabéns, aprovado&quot;" style="whiteSpace=wrap;html=1;" parent="1" vertex="1">
          <mxGeometry x="470" y="995" width="120" height="60" as="geometry" />
        </mxCell>
        <mxCell id="EY5WGtaOUp1zKnzpAjSC-12" style="edgeStyle=orthogonalEdgeStyle;rounded=0;orthogonalLoop=1;jettySize=auto;html=1;exitX=1;exitY=0.5;exitDx=0;exitDy=0;entryX=0.25;entryY=1;entryDx=0;entryDy=0;" parent="1" source="EY5WGtaOUp1zKnzpAjSC-2" target="EY5WGtaOUp1zKnzpAjSC-10" edge="1">
          <mxGeometry relative="1" as="geometry" />
        </mxCell>
        <mxCell id="EY5WGtaOUp1zKnzpAjSC-2" value="Exibir&lt;br&gt;&quot;Infelizmente, reprovado&quot;" style="whiteSpace=wrap;html=1;" parent="1" vertex="1">
          <mxGeometry x="460" y="1100" width="140" height="60" as="geometry" />
        </mxCell>
        <mxCell id="EY5WGtaOUp1zKnzpAjSC-7" value="" style="ellipse;whiteSpace=wrap;html=1;fillColor=#fa6800;fontColor=#000000;strokeColor=#C73500;" parent="1" vertex="1">
          <mxGeometry x="890" y="995" width="80" height="80" as="geometry" />
        </mxCell>
        <mxCell id="EY5WGtaOUp1zKnzpAjSC-14" value="" style="edgeStyle=orthogonalEdgeStyle;rounded=0;orthogonalLoop=1;jettySize=auto;html=1;" parent="1" source="EY5WGtaOUp1zKnzpAjSC-10" target="EY5WGtaOUp1zKnzpAjSC-13" edge="1">
          <mxGeometry relative="1" as="geometry" />
        </mxCell>
        <mxCell id="EY5WGtaOUp1zKnzpAjSC-10" value="Exibir&lt;br&gt;&quot;Será cadastrado um novo aluno?&quot;" style="whiteSpace=wrap;html=1;" parent="1" vertex="1">
          <mxGeometry x="660" y="950" width="140" height="60" as="geometry" />
        </mxCell>
        <mxCell id="EY5WGtaOUp1zKnzpAjSC-16" value="" style="edgeStyle=orthogonalEdgeStyle;rounded=0;orthogonalLoop=1;jettySize=auto;html=1;" parent="1" source="EY5WGtaOUp1zKnzpAjSC-13" target="EY5WGtaOUp1zKnzpAjSC-15" edge="1">
          <mxGeometry relative="1" as="geometry" />
        </mxCell>
        <mxCell id="EY5WGtaOUp1zKnzpAjSC-13" value="Ler resposta&lt;br&gt;&lt;br&gt;&lt;b&gt;[res]&lt;/b&gt;" style="whiteSpace=wrap;html=1;" parent="1" vertex="1">
          <mxGeometry x="670" y="850" width="120" height="60" as="geometry" />
        </mxCell>
        <mxCell id="EY5WGtaOUp1zKnzpAjSC-17" style="edgeStyle=orthogonalEdgeStyle;rounded=0;orthogonalLoop=1;jettySize=auto;html=1;exitX=0.5;exitY=1;exitDx=0;exitDy=0;" parent="1" source="EY5WGtaOUp1zKnzpAjSC-15" target="EY5WGtaOUp1zKnzpAjSC-7" edge="1">
          <mxGeometry relative="1" as="geometry" />
        </mxCell>
        <mxCell id="EY5WGtaOUp1zKnzpAjSC-18" value="[Caso &lt;b&gt;res&lt;/b&gt;&amp;nbsp;!= &quot;sim&quot;]" style="edgeLabel;html=1;align=center;verticalAlign=middle;resizable=0;points=[];" parent="EY5WGtaOUp1zKnzpAjSC-17" vertex="1" connectable="0">
          <mxGeometry x="-0.12" y="-1" relative="1" as="geometry">
            <mxPoint as="offset" />
          </mxGeometry>
        </mxCell>
        <mxCell id="EY5WGtaOUp1zKnzpAjSC-19" style="edgeStyle=orthogonalEdgeStyle;rounded=0;orthogonalLoop=1;jettySize=auto;html=1;exitX=0.5;exitY=0;exitDx=0;exitDy=0;entryX=1;entryY=0.5;entryDx=0;entryDy=0;" parent="1" source="EY5WGtaOUp1zKnzpAjSC-15" target="0FrimoAEe9XF9UaPfHPQ-1" edge="1">
          <mxGeometry relative="1" as="geometry" />
        </mxCell>
        <mxCell id="EY5WGtaOUp1zKnzpAjSC-20" value="[Caso &lt;b&gt;res&lt;/b&gt;&amp;nbsp;= &quot;sim&quot;]" style="edgeLabel;html=1;align=center;verticalAlign=middle;resizable=0;points=[];" parent="EY5WGtaOUp1zKnzpAjSC-19" vertex="1" connectable="0">
          <mxGeometry x="-0.9307" y="-1" relative="1" as="geometry">
            <mxPoint as="offset" />
          </mxGeometry>
        </mxCell>
        <mxCell id="EY5WGtaOUp1zKnzpAjSC-15" value="" style="rhombus;whiteSpace=wrap;html=1;" parent="1" vertex="1">
          <mxGeometry x="890" y="840" width="80" height="80" as="geometry" />
        </mxCell>
      </root>
    </mxGraphModel>
  </diagram>
</mxfile>
